<svg xmlns="http://www.w3.org/2000/svg" viewBox="0 0 24 24" fill="none">
  <rect x="11.5" y="4" width="1" height="4" rx="0.3" fill="currentColor" transform="rotate(0 12 12)"/>
  <rect x="11.5" y="6" width="1" height="2" rx="0.3" fill="currentColor" fill-opacity="0.65" transform="rotate(45 12 12)"/>
  <rect x="11.5" y="3" width="1" height="5" rx="0.3" fill="currentColor" transform="rotate(90 12 12)"/>
  <rect x="11.5" y="5" width="1" height="3" rx="0.3" fill="currentColor" fill-opacity="0.85" transform="rotate(135 12 12)"/>
  <rect x="11.5" y="6" width="1" height="2" rx="0.3" fill="currentColor" fill-opacity="0.6" transform="rotate(180 12 12)"/>
  <rect x="11.5" y="4.5" width="1" height="3.5" rx="0.3" fill="currentColor" fill-opacity="0.75" transform="rotate(225 12 12)"/>
  <rect x="11.5" y="3.5" width="1" height="4.5" rx="0.3" fill="currentColor" fill-opacity="0.9" transform="rotate(270 12 12)"/>
  <rect x="11.5" y="5" width="1" height="3" rx="0.3" fill="currentColor" fill-opacity="0.7" transform="rotate(315 12 12)"/>
  <circle cx="12" cy="12" r="9.5" stroke="currentColor" stroke-width="1.5"/>
  <circle cx="12" cy="12" r="3.5" fill="currentColor" fill-opacity="0.1" stroke="currentColor" stroke-width="1"/>
</svg>
